<svg xmlns="http://www.w3.org/2000/svg" width="540" height="500"><g style="display:inline"><path style="fill:#000;fill-rule:evenodd" d="m58.563 0-.47.969-2.218 4.437L0 117.687l70.75.47.594 117.312c.258 49.259 10.571 91.089 31.094 125.344 16.849 28.072 40.112 51.418 69.5 70.03 17.403 10.653 37.367 19.253 59.875 25.813l-.657-127.906c-30.89-24.433-42.448-55.165-42.656-93.875l-.563-117.281h70.5L316.531 0l-8.062.031L58.563 0zM333.53 1.656l-56.969 115.469 28.532-.125c35.132-.19 62.924 9.812 83.344 30.031 68.02 67.388 33.964 203.945-82.157 204.531-22.404.122-41.863-3.922-58.281-12.125l.625 122.532c48.066 21.41 139.01 33.923 216 38.031-26.664-9.55-55.404-28.648-58.563-53.063 12.642-5.336 24.61-11.38 35.907-18.062 29.215-18.905 52.121-42.486 68.781-70.75 19.764-34.481 29.492-76.153 29.25-125.031-.346-69.598-20.945-124.64-61.75-165.094-29.062-28.783-66.859-48.909-113.406-60.406-11.073-2.643-21.517-4.609-31.313-5.938z"/></g></svg>