<?xml version="1.0" encoding="UTF-8" standalone="no"?>
<svg
   width="540"
   height="540"
   version="1.1"
   id="svg6"
   sodipodi:docname="logo_tomsquest.com.svg"
   inkscape:version="1.1.2 (0a00cf5339, 2022-02-04)"
   inkscape:export-filename="/home/tom/Dev/tomsquest.github.io/assets/images/logo_512_inskape.png"
   inkscape:export-xdpi="91.022224"
   inkscape:export-ydpi="91.022224"
   xmlns:inkscape="http://www.inkscape.org/namespaces/inkscape"
   xmlns:sodipodi="http://sodipodi.sourceforge.net/DTD/sodipodi-0.dtd"
   xmlns="http://www.w3.org/2000/svg"
   xmlns:svg="http://www.w3.org/2000/svg">
  <defs
     id="defs10" />
  <sodipodi:namedview
     id="namedview8"
     pagecolor="#ffffff"
     bordercolor="#666666"
     borderopacity="1.0"
     inkscape:pageshadow="2"
     inkscape:pageopacity="0.0"
     inkscape:pagecheckerboard="0"
     showgrid="false"
     height="540px"
     inkscape:zoom="1.288"
     inkscape:cx="160.32609"
     inkscape:cy="229.42547"
     inkscape:window-width="1920"
     inkscape:window-height="1080"
     inkscape:window-x="0"
     inkscape:window-y="0"
     inkscape:window-maximized="1"
     inkscape:current-layer="svg6" />
  <g
     style="display:inline"
     id="g4"
     transform="translate(0,20)">
    <path
       style="fill:#000000;fill-rule:evenodd"
       d="M 58.563,0 58.093,0.969 55.875,5.406 0,117.687 l 70.75,0.47 0.594,117.312 c 0.258,49.259 10.571,91.089 31.094,125.344 16.849,28.072 40.112,51.418 69.5,70.03 17.403,10.653 37.367,19.253 59.875,25.813 L 231.156,328.75 C 200.266,304.317 188.708,273.585 188.5,234.875 l -0.563,-117.281 h 70.5 L 316.531,0 308.469,0.031 Z M 333.53,1.656 276.561,117.125 305.093,117 c 35.132,-0.19 62.924,9.812 83.344,30.031 68.02,67.388 33.964,203.945 -82.157,204.531 -22.404,0.122 -41.863,-3.922 -58.281,-12.125 l 0.625,122.532 c 48.066,21.41 139.01,33.923 216,38.031 -26.664,-9.55 -55.404,-28.648 -58.563,-53.063 12.642,-5.336 24.61,-11.38 35.907,-18.062 29.215,-18.905 52.121,-42.486 68.781,-70.75 19.764,-34.481 29.492,-76.153 29.25,-125.031 C 539.653,163.496 519.054,108.454 478.249,68 449.187,39.217 411.39,19.091 364.843,7.594 353.77,4.951 343.326,2.985 333.53,1.656 Z"
       id="path2" />
  </g>
</svg>
