<svg xmlns="http://www.w3.org/2000/svg" xmlns:svg="http://www.w3.org/2000/svg" id="svg6" width="540" height="540" version="1.1"><g style="display:inline" id="g4" transform="translate(0,20)"><path style="fill:#000;fill-rule:evenodd" id="path2" d="M 58.563,0 58.093,0.969 55.875,5.406 0,117.687 l 70.75,0.47 0.594,117.312 c 0.258,49.259 10.571,91.089 31.094,125.344 16.849,28.072 40.112,51.418 69.5,70.03 17.403,10.653 37.367,19.253 59.875,25.813 L 231.156,328.75 C 200.266,304.317 188.708,273.585 188.5,234.875 l -0.563,-117.281 h 70.5 L 316.531,0 308.469,0.031 Z M 333.53,1.656 276.561,117.125 305.093,117 c 35.132,-0.19 62.924,9.812 83.344,30.031 68.02,67.388 33.964,203.945 -82.157,204.531 -22.404,0.122 -41.863,-3.922 -58.281,-12.125 l 0.625,122.532 c 48.066,21.41 139.01,33.923 216,38.031 -26.664,-9.55 -55.404,-28.648 -58.563,-53.063 12.642,-5.336 24.61,-11.38 35.907,-18.062 29.215,-18.905 52.121,-42.486 68.781,-70.75 19.764,-34.481 29.492,-76.153 29.25,-125.031 C 539.653,163.496 519.054,108.454 478.249,68 449.187,39.217 411.39,19.091 364.843,7.594 353.77,4.951 343.326,2.985 333.53,1.656 Z"/></g></svg>