<svg version="1" xmlns="http://www.w3.org/2000/svg" width="720" height="720" viewBox="0 0 540.000000 540.000000"><path d="M31 75.2c-15.1 30.4-28.2 56.9-29.1 58.9l-1.7 3.6 11.7.1c6.4 0 22.3.1 35.3.2l23.7.1.1 47.9c0 47.2.6 86.2 1.5 95 .5 5.3 1.5 14.3 2 17.4.2 1.1.6 3.9.9 6.1 5 34.8 22.1 73.9 43.7 99.9 8.7 10.4 22.6 24.3 30.4 30.4 9.5 7.3 19.4 14.4 22 15.7 1.7.8 4.8 2.6 7 3.9 10.1 6.1 27.3 13.6 43.6 19.1l9.7 3.2-.4-63.7-.3-63.6-11-11.2C214 332 209 326.4 209 325.8c0-.6-.9-2.1-1.9-3.2-2.6-2.8-9.4-16.5-11.9-24.1-3-8.8-5.3-20.8-6-31-.3-5-.6-36.2-.6-69.5l-.1-60.5H258.2l4.9-9.5C270.5 113.6 316 21.1 316 20.5c0-.3-57.9-.5-128.8-.5H58.5L31 75.2z"/><path d="M305.2 79c-15.5 31.5-28.1 57.4-27.9 57.6.1.2 9.2.4 20 .4 36.2.3 56 5 76.3 18.3 17.2 11.2 33.9 32.5 41.1 52.2 2.2 6.1 5.3 16.6 5.9 20.4.3 1.8.8 4.3 1.1 5.5.3 1.1.7 9.1.9 17.6.5 28.1-5.9 50.1-20.7 72-17.2 25.4-43.8 41.8-76.4 47.1-9.7 1.6-33.2 1.3-44-.5-9.8-1.6-19-4.2-27.3-7.5-2.9-1.1-5.5-2.1-5.7-2.1-.2 0-.3 27.3-.2 60.7l.3 60.8 3.7 1.8c10.9 5.4 51.1 16.7 71.9 20.2 1.8.3 8 1.4 13.8 2.5 11.7 2.1 22.5 3.8 28.4 4.5 2.2.3 5.1.7 6.5 1 3.2.5 17.6 2.2 25.6 3 3.3.4 7.4.8 9 1 1.7.2 6.6.7 11 1 4.4.4 9.4.9 11 1.1 2.6.2 7 .5 27.3 1.9 4.5.3 5.7-.9 2-2.1-12.8-3.9-32.6-17.2-41.7-27.8-4.7-5.6-9.8-15.4-10.3-20-.3-2.8.1-3.1 8.7-7 31.8-14.5 54.8-32.2 78.5-60.2 5.1-6.1 17.2-24.8 21.4-33.2 8.3-16.6 17-42.4 19.1-56.4.4-2.3.8-4.5 1-4.8.2-.3.7-3.3 1-6.5.4-3.3.9-6.9 1.1-8 2.5-12.6 2.4-65.2-.1-80.2-.3-1.6-.7-4.2-.9-5.8-3.1-22.2-13.4-54-23.6-73-3.4-6.2-13.8-22.6-14.9-23.5-.3-.3-1.9-2.3-3.6-4.5-13-17.6-35.9-37.3-59.5-51.3-23.2-13.7-63.1-27.8-90.5-31.8-1.1-.1-4-.6-6.5-.9l-4.5-.7L305.2 79z"/></svg>